<?xml version="1.0" encoding="UTF-8"?>
<svg id="Calque_2" data-name="Calque 2" xmlns="http://www.w3.org/2000/svg" viewBox="0 0 360 52.27">
  <defs>
    <style>
      .cls-1 {
        fill: #851811;
      }
    </style>
  </defs>
  <g id="Calque_1-2" data-name="Calque 1">
    <path class="cls-1" d="M26.59,1.56c1.02-1.11,2.52-1.56,4.18-1.56,1.88,0,3.06,1.03,3.06,2.6V30h-7.24V9.89L8.68,30H0L26.59,1.56Z"/>
    <path class="cls-1" d="M69.63,30h-10.18l-11.1-7.16c-1.29-.82-1.98-1.54-1.98-2.29,0-1.41,1.45-2.16,4.34-2.29,7.72-.33,11.47-1.83,11.47-4.94,0-2.91-3-4.38-8.36-4.38h-8.04V30h-7.29V4.48h15.49c8.79,0,15.76,3.08,15.76,8.73,0,3.37-3.11,7.52-12.92,8.47l12.81,8.31Z"/>
    <path class="cls-1" d="M89.79,8.93V30h-7.29V8.93h-10.67V4.48h28.62v4.45h-10.67Z"/>
    <path class="cls-1" d="M147.25,30h-10.18l-11.1-8.42c-1.29-.96-1.98-1.81-1.98-2.69,0-1.65,1.45-2.54,4.34-2.69,7.72-.38,11.47-2.15,11.47-5.81,0-3.42-3-5.15-8.36-5.15h-8.04V30h-7.29V0h15.49c8.79,0,15.76,3.62,15.76,10.27,0,3.96-3.11,8.85-12.92,9.96l12.81,9.77Z"/>
    <path class="cls-1" d="M172.01,30h-20.74V4.48h20.42v4.45h-13.13v5.92h11.31v4.42h-11.31v6.28h13.45v4.45Z"/>
    <path class="cls-1" d="M175.77,30v-4.45h14.63c4.5,0,7.77-1.44,7.77-3.53s-3.27-3.57-7.77-3.57h-3.32c-6.81,0-12.01-2.88-12.01-6.94s5.25-7.03,13.03-7.03h13.88v4.45h-14.26c-3.06,0-4.99,1.18-4.99,2.62,0,1.57,2.04,2.75,4.99,2.75h4.13c7.45,0,12.86,3.24,12.86,7.82s-5.74,7.88-14.31,7.88h-14.63Z"/>
    <path class="cls-1" d="M229.53,30h-20.74V4.48h20.42v4.45h-13.13v5.92h11.31v4.42h-11.31v6.28h13.45v4.45Z"/>
    <path class="cls-1" d="M256.55,5.63c1.02-.95,2.52-1.34,4.18-1.34,1.88,0,3.06,.88,3.06,2.22V30h-7.24V12.76l-17.9,17.24h-8.68l26.59-24.37Z"/>
    <path class="cls-1" d="M299.59,30h-10.18l-11.1-7.16c-1.29-.82-1.98-1.54-1.98-2.29,0-1.41,1.45-2.16,4.34-2.29,7.72-.33,11.47-1.83,11.47-4.94,0-2.91-3-4.38-8.36-4.38h-8.04V30h-7.29V4.48h15.49c8.79,0,15.76,3.08,15.76,8.73,0,3.37-3.11,7.52-12.92,8.47l12.81,8.31Z"/>
    <path class="cls-1" d="M323.71,30c-12.44,0-21.07-5.66-21.07-13.02s8.52-12.5,21.07-12.5h6.11v4.45h-6.11c-7.99,0-13.88,3.57-13.88,8.41s5.68,8.21,13.88,8.21h6.11v4.45h-6.11Z"/>
    <path class="cls-1" d="M340.33,30h-7.29V4.48h7.29V14.85h12.38V4.48h7.29V30h-7.29v-10.7h-12.38v10.7Z"/>
    <g>
      <path class="cls-1" d="M85.95,42.1c0,.63-.16,1.23-.47,1.82-.32,.58-.8,1.1-1.45,1.55-.65,.45-1.48,.81-2.49,1.07s-2.2,.4-3.58,.4h-5.44v5.13h-4.59v-14.58h9.85c1.4,0,2.61,.11,3.64,.34,1.03,.22,1.88,.54,2.55,.95,.67,.41,1.17,.89,1.5,1.46,.33,.57,.49,1.19,.49,1.87Zm-4.62,.05c0-.75-.34-1.32-1.02-1.71-.68-.39-1.7-.58-3.06-.58h-4.74v4.73h4.87c.68,0,1.27-.06,1.77-.18,.49-.12,.9-.28,1.23-.5,.33-.21,.57-.47,.72-.77,.16-.3,.23-.63,.23-.99Z"/>
      <path class="cls-1" d="M105.02,52.07l-5.09-5.53h-5.38v5.53h-4.59v-14.58h10.95c1.37,0,2.56,.1,3.59,.31,1.02,.2,1.87,.49,2.56,.87,.68,.38,1.2,.83,1.53,1.37s.51,1.14,.51,1.81c0,.54-.12,1.04-.37,1.49-.24,.45-.58,.85-1.01,1.21-.43,.35-.94,.65-1.53,.88s-1.23,.41-1.93,.52l5.93,6.12h-5.16Zm-.54-10.11c0-.71-.35-1.24-1.05-1.58s-1.7-.52-2.99-.52h-5.88v4.3h6c.68,0,1.27-.05,1.77-.16,.49-.11,.9-.26,1.21-.45,.32-.2,.55-.43,.71-.7s.23-.56,.23-.89Z"/>
      <path class="cls-1" d="M135.08,44.71c0,1.14-.25,2.17-.76,3.1-.51,.93-1.24,1.73-2.19,2.39-.95,.66-2.12,1.17-3.49,1.53s-2.93,.54-4.66,.54c-1.84,0-3.44-.19-4.81-.56-1.37-.38-2.52-.9-3.45-1.57s-1.61-1.47-2.08-2.39-.69-1.94-.69-3.03,.24-2.16,.72-3.08c.48-.92,1.19-1.7,2.13-2.34,.94-.64,2.09-1.14,3.47-1.49,1.37-.35,2.95-.52,4.74-.52s3.36,.18,4.74,.53,2.53,.85,3.47,1.5c.94,.65,1.65,1.43,2.14,2.34,.49,.91,.73,1.94,.73,3.07Zm-4.68,0c0-.77-.14-1.46-.41-2.07-.28-.62-.68-1.15-1.22-1.59-.54-.44-1.21-.78-2-1.02-.79-.24-1.71-.36-2.76-.36s-2,.12-2.81,.36c-.8,.24-1.48,.58-2.01,1.02-.54,.44-.94,.97-1.21,1.59s-.4,1.31-.4,2.07,.14,1.45,.41,2.08c.27,.63,.68,1.17,1.22,1.63,.54,.46,1.21,.81,2.01,1.06,.8,.26,1.72,.38,2.77,.38,1.12,0,2.08-.13,2.89-.39,.81-.26,1.47-.62,2-1.08,.52-.46,.91-1,1.16-1.63s.37-1.32,.37-2.06Z"/>
      <path class="cls-1" d="M158.88,44.67c0,1.21-.27,2.28-.82,3.2-.55,.92-1.3,1.69-2.26,2.31-.95,.62-2.08,1.09-3.38,1.41-1.3,.32-2.7,.47-4.21,.47h-8.87v-14.58h7.93c1.7,0,3.26,.14,4.68,.42s2.64,.72,3.67,1.3c1.03,.59,1.83,1.33,2.4,2.23s.86,1.97,.86,3.22Zm-4.62,0c0-.85-.17-1.58-.52-2.18-.35-.61-.83-1.1-1.45-1.49-.62-.39-1.37-.68-2.23-.86s-1.82-.28-2.87-.28h-3.25v9.86h3.89c.92,0,1.78-.11,2.56-.32,.78-.21,1.46-.53,2.04-.96s1.03-.95,1.35-1.58c.33-.63,.49-1.35,.49-2.18Z"/>
      <path class="cls-1" d="M172.26,52.27c-1.37,0-2.62-.11-3.76-.33-1.14-.22-2.12-.56-2.95-1.01-.82-.46-1.47-1.05-1.93-1.76-.46-.72-.69-1.57-.69-2.57v-9.11h4.59v8.88c0,.61,.11,1.14,.34,1.59,.23,.44,.55,.81,.98,1.1,.43,.28,.94,.5,1.54,.63s1.27,.2,2.01,.2,1.43-.07,2.06-.21,1.17-.36,1.62-.66c.45-.3,.8-.67,1.05-1.13s.37-1,.37-1.62v-8.77h4.59v8.96c0,1-.24,1.87-.73,2.6s-1.17,1.34-2.04,1.82-1.91,.83-3.1,1.06c-1.2,.23-2.51,.35-3.94,.35Z"/>
      <path class="cls-1" d="M197.19,49.87c.86,0,1.6-.08,2.23-.24,.63-.16,1.17-.38,1.63-.64,.46-.26,.85-.56,1.15-.89,.31-.33,.56-.66,.75-1l4,1c-.32,.53-.74,1.04-1.26,1.54-.52,.5-1.17,.95-1.94,1.34s-1.7,.7-2.78,.94c-1.07,.24-2.34,.36-3.79,.36-1.9,0-3.54-.19-4.93-.56-1.39-.38-2.54-.9-3.45-1.57s-1.58-1.47-2.02-2.39-.66-1.94-.66-3.03,.22-2.16,.66-3.08,1.11-1.7,2-2.34c.89-.64,2.02-1.14,3.38-1.49s2.97-.52,4.81-.52c1.43,0,2.68,.1,3.76,.3,1.07,.2,2,.48,2.78,.84,.78,.36,1.43,.79,1.94,1.28,.51,.49,.92,1.03,1.21,1.63l-4.04,.73c-.15-.31-.37-.61-.67-.89-.3-.29-.68-.54-1.14-.76-.46-.22-1-.4-1.63-.53-.62-.13-1.33-.2-2.12-.2-1.11,0-2.06,.12-2.86,.36-.8,.24-1.45,.58-1.97,1.02-.51,.44-.89,.97-1.14,1.59-.24,.62-.37,1.31-.37,2.07s.12,1.45,.37,2.08c.24,.63,.62,1.17,1.14,1.63s1.18,.81,2,1.06c.81,.26,1.79,.38,2.93,.38Z"/>
      <path class="cls-1" d="M220.65,39.85v12.22h-4.59v-12.22h-7.08v-2.36h18.76v2.36h-7.09Z"/>
      <path class="cls-1" d="M231.01,52.07v-14.58h4.59v14.58h-4.59Z"/>
      <path class="cls-1" d="M261.97,44.71c0,1.14-.25,2.17-.76,3.1-.51,.93-1.24,1.73-2.19,2.39-.95,.66-2.12,1.17-3.49,1.53s-2.93,.54-4.66,.54c-1.84,0-3.44-.19-4.81-.56-1.37-.38-2.52-.9-3.45-1.57s-1.61-1.47-2.08-2.39-.69-1.94-.69-3.03,.24-2.16,.72-3.08c.48-.92,1.19-1.7,2.13-2.34,.94-.64,2.09-1.14,3.47-1.49,1.37-.35,2.95-.52,4.74-.52s3.36,.18,4.74,.53,2.53,.85,3.47,1.5c.94,.65,1.65,1.43,2.14,2.34,.49,.91,.73,1.94,.73,3.07Zm-4.68,0c0-.77-.14-1.46-.41-2.07-.28-.62-.68-1.15-1.22-1.59-.54-.44-1.21-.78-2-1.02-.79-.24-1.71-.36-2.76-.36s-2,.12-2.81,.36c-.8,.24-1.48,.58-2.01,1.02-.54,.44-.94,.97-1.21,1.59s-.4,1.31-.4,2.07,.14,1.45,.41,2.08c.27,.63,.68,1.17,1.22,1.63,.54,.46,1.21,.81,2.01,1.06,.8,.26,1.72,.38,2.77,.38,1.12,0,2.08-.13,2.89-.39,.81-.26,1.47-.62,2-1.08,.52-.46,.91-1,1.16-1.63s.37-1.32,.37-2.06Z"/>
      <path class="cls-1" d="M279.59,52.07l-9.55-11.22c.05,.3,.1,.61,.14,.91,.04,.26,.08,.55,.1,.85,.03,.3,.04,.59,.04,.87v8.6h-4.08v-14.58h5.24l9.69,11.32c-.05-.29-.1-.59-.14-.91-.04-.27-.08-.57-.1-.91-.03-.34-.04-.68-.04-1.02v-8.47h4.08v14.58h-5.38Z"/>
      <path class="cls-1" d="M307.92,47.87c0,.66-.18,1.26-.54,1.81-.36,.54-.93,1-1.69,1.39-.76,.39-1.74,.69-2.92,.9-1.19,.21-2.6,.31-4.24,.31-1.45,0-2.73-.09-3.84-.26-1.11-.17-2.06-.43-2.85-.77-.79-.34-1.44-.76-1.93-1.26-.49-.5-.85-1.07-1.07-1.72l4.43-.49c.12,.32,.31,.62,.54,.89s.57,.5,.99,.7c.42,.2,.94,.35,1.57,.46,.63,.11,1.39,.16,2.28,.16,1.56,0,2.75-.16,3.57-.47,.82-.31,1.24-.81,1.24-1.47,0-.4-.17-.73-.5-.98s-.77-.47-1.32-.63c-.55-.16-1.18-.3-1.9-.41-.72-.11-1.46-.22-2.24-.32-.62-.1-1.24-.2-1.87-.3-.62-.1-1.22-.23-1.78-.37-.57-.14-1.09-.32-1.58-.52-.49-.2-.91-.45-1.27-.74s-.64-.64-.84-1.03c-.2-.39-.3-.85-.3-1.39,0-.72,.22-1.35,.65-1.86,.44-.52,1.04-.94,1.81-1.27,.77-.33,1.69-.57,2.76-.72,1.07-.15,2.23-.23,3.5-.23,1.43,0,2.66,.07,3.68,.22,1.02,.15,1.88,.38,2.57,.68,.69,.3,1.23,.69,1.63,1.14,.4,.46,.69,.99,.88,1.61l-4.45,.4c-.23-.63-.69-1.1-1.39-1.42-.7-.32-1.7-.48-3.01-.48-.81,0-1.48,.05-2.01,.14-.53,.09-.96,.22-1.28,.38-.32,.16-.54,.34-.68,.55-.14,.21-.2,.43-.2,.67,0,.36,.13,.65,.39,.88s.62,.42,1.09,.58c.47,.16,1.02,.29,1.67,.39,.65,.11,1.36,.22,2.14,.33,.68,.1,1.36,.2,2.04,.3,.67,.11,1.32,.23,1.93,.38,.61,.15,1.18,.32,1.71,.53,.53,.21,.99,.46,1.38,.76s.69,.66,.92,1.07c.22,.41,.33,.9,.33,1.47Z"/>
    </g>
  </g>
</svg>